<svg width="508" height="90" viewBox="0 0 508 90" fill="none" xmlns="http://www.w3.org/2000/svg">
<g clip-path="url(#clip0_912_369)">
<path d="M120.508 50.5454C120.508 66.6657 110.708 81.1679 95.7964 87.2156V90.0877H120.508V50.5454Z" fill="black"/>
<path d="M66.1946 0H41.4829V50.5453C41.4829 63.6924 48.0094 75.9697 58.9003 83.3321C69.7912 90.6742 83.612 92.1305 95.7961 87.2155V50.5453C95.7961 58.7167 89.1686 65.3509 81.0055 65.3509C72.8423 65.3509 66.2148 58.7167 66.2148 50.5453V0" fill="black"/>
<path d="M120.508 0H95.7964V87.2155C110.728 81.1679 120.488 66.6657 120.508 50.5453V0Z" fill="black"/>
<path d="M191.23 50.5453C191.23 58.7167 184.602 65.3509 176.439 65.3509C168.276 65.3509 161.648 58.7167 161.648 50.5453V0H136.937V50.5453C136.937 66.342 146.312 80.642 160.82 86.8717C175.328 93.1216 192.139 90.1078 203.595 79.2464C195.695 71.7829 191.23 61.4068 191.23 50.5453Z" fill="black"/>
<path d="M270.255 0H245.543V50.5453C245.604 55.8648 242.795 60.8203 238.188 63.4901C233.581 66.16 227.903 66.16 223.317 63.4901C218.71 60.8203 215.901 55.8648 215.962 50.5453C215.962 61.4068 211.496 71.8031 203.596 79.2464C215.052 90.1281 231.864 93.1216 246.371 86.8717C260.879 80.6218 270.275 66.342 270.255 50.5453V0Z" fill="black"/>
<path d="M215.942 0H191.23V50.5453C191.23 61.4068 195.695 71.8031 203.596 79.2464C211.496 71.7829 215.962 61.4068 215.962 50.5453V0" fill="black"/>
<path d="M374.417 0.0605469H349.706V4.89462C364.86 12.5604 374.397 28.0941 374.417 45.0841V0.0605469ZM374.417 45.0639C374.417 62.054 364.84 77.5877 349.706 85.2534V90.0875H374.417V45.0841" fill="black"/>
<path d="M329.439 0.0605469C310.849 0.0605469 294.159 11.5086 287.471 28.8829C280.783 46.2573 285.471 65.9576 299.251 78.4372C313.032 90.937 333.096 93.6271 349.685 85.2534V45.0639C349.685 53.2555 344.755 60.6583 337.177 63.7934C329.6 66.9285 320.892 65.189 315.113 59.4043C309.314 53.5994 307.596 44.8819 310.728 37.3173C313.86 29.7324 321.255 24.7972 329.439 24.7972C340.612 24.7972 349.685 33.8788 349.685 45.0639V4.89462C343.401 1.7191 336.47 0.0605469 329.439 0.0605469Z" fill="black"/>
<path d="M349.686 4.89425V85.2531C364.84 77.5873 374.377 62.0536 374.397 45.0636C374.397 28.0735 364.82 12.5398 349.686 4.87402" fill="black"/>
<path d="M466.86 12.4187C466.86 16.6257 466.173 20.8125 464.779 24.7971H435.258C431.035 28.3772 426.59 31.6943 421.922 34.6877C410.91 42.131 397.756 51.0508 392.765 65.29H422.185C426.468 61.6089 430.994 58.2311 435.743 55.1769C446.694 47.7741 459.768 38.915 464.758 24.7769C466.153 20.8125 466.86 16.6257 466.84 12.3984" fill="black"/>
<path d="M466.86 0.0402832H393.068V24.777H435.258C439.683 20.7722 442.148 16.9494 442.148 12.3985V0.0402832H466.86Z" fill="black"/>
<path d="M466.86 0.0402832H442.148V12.4187C442.148 16.9696 439.683 20.7722 435.258 24.7972H464.779C466.173 20.8328 466.88 16.646 466.86 12.4187V0.0402832Z" fill="black"/>
<path d="M464.516 65.29H422.205C417.861 69.2746 415.436 73.0974 415.436 77.6685V90.0469H464.516V65.3103" fill="black"/>
<path d="M422.205 65.29H392.785C391.411 69.2746 390.704 73.4412 390.724 77.6685V90.0469H415.436V77.6685C415.436 73.0974 417.86 69.2948 422.205 65.29Z" fill="black"/>
<path d="M507.999 0.182129H483.288V90.0877H507.999V0.182129Z" fill="black"/>
<path d="M507.999 0.182129H483.288V26.2942H507.999V0.182129Z" fill="black"/>
<path d="M24.7117 0.182129H0V26.2942H24.7117V0.182129Z" fill="#FF4338"/>
<path d="M24.7117 63.9758H0V90.0879H24.7117V63.9758Z" fill="#00B3E3"/>
</g>
<defs>
<clipPath id="clip0_912_369">
<rect width="508" height="89.9967" fill="white"/>
</clipPath>
</defs>
</svg>
